<?xml version="1.0" encoding="utf-8"?>
<!-- Generator: Adobe Illustrator 18.0.0, SVG Export Plug-In . SVG Version: 6.00 Build 0)  -->
<!DOCTYPE svg PUBLIC "-//W3C//DTD SVG 1.1//EN" "http://www.w3.org/Graphics/SVG/1.1/DTD/svg11.dtd">
<svg version="1.1" id="Layer_1" xmlns="http://www.w3.org/2000/svg" xmlns:xlink="http://www.w3.org/1999/xlink" x="0px" y="0px"
	 viewBox="0 0 70.9 48.7" style="enable-background:new 0 0 70.9 48.7;" xml:space="preserve">
<g>
	<defs>
		<rect id="SVGID_1_" y="0" width="70.9" height="48.8"/>
	</defs>
	<clipPath id="SVGID_2_">
		<use xlink:href="#SVGID_1_"  style="overflow:visible;"/>
	</clipPath>
	<path style="clip-path:url(#SVGID_2_);" d="M68.9,21.1c-2.8-4.2-6.2-5.3-8.5-5.4l-0.9-0.1l0.1-0.9c0.1-0.8,0-1.5-0.2-2.2
		c-0.6-1.8-2-3.3-4.4-4.5c-4.9-2.4-9.5-1.1-11.8-0.1l-0.6,0.3l-0.4-0.5C40.2,5.1,35.3,0,28,0c-1.1,0-2.3,0.1-3.6,0.4
		c-7.6,1.7-9.5,5.3-9.9,7.4l-0.1,0.5l-0.5,0.1C7.4,9.9,0,14.8,0,23.7c0,13.9,11.9,17,16.1,17h40c5.8,0,10.9-2.9,13.4-7.6
		C71.5,29.2,71.3,24.7,68.9,21.1 M68.2,32.6c-2.2,4.2-6.9,6.9-12.1,6.9h-40c-4.1,0-14.7-2.9-14.7-15.7c0-11.7,13.1-14.1,13.7-14.2
		l0.6-0.1l0-0.6c0-0.1-0.2-5.1,9-7.1c1.1-0.2,2.2-0.4,3.3-0.4c8.6,0,13.7,7.7,13.9,8l0.4,0.6l0.6-0.4c0.2-0.1,5.7-3.3,11.6-0.4
		c2,1,3.2,2.2,3.7,3.6c0.5,1.7-0.2,3.1-0.3,3.3L57,17.5l1.6-0.4c1.1-0.3,5.7-0.4,9.2,4.8C69.9,25.2,70.1,29.1,68.2,32.6"/>
	<path style="clip-path:url(#SVGID_2_);" d="M56.5,29.3c0,0,0-0.1-0.1-0.1c-0.1,0-0.4-0.1-0.6-0.1l-0.1,0l0-0.1
		c0.2-0.6,0.1-1.2-0.2-1.9c-0.7-1.4-2.3-2.1-5-2.1c-3.2,0-6.4-0.9-8.7-2.4c-0.7-0.4-1.5-1.1-2.3-1.7L39,20.5
		c-2.7-2.1-5.5-4.3-7.2-4.3c-1,0-2.1,0.6-3.4,1.2c-0.4,0.2-0.7,0.4-1,0.5c-1.2,0.7-2.4,1.3-4.2,1.3c-3.5,0-5.8-1-6.4-1.3l-0.1,0
		l-0.1,0c-1,0.3-1.7,1.8-1.8,4.1c-0.2,2.4,0.2,4.3,0.3,4.9l0,0.1L14.9,27c-0.4,0.2-0.6,0.4-0.6,1.1c0,0.7,0,3.7,0,4.5h12.6v-1.4
		l0.3,0c1.6,0.3,5.3,0.9,8,1.3c2,0.2,4.7,0.4,7.6,0.4c1.6,0,3.3,0,4.7-0.1c1.8-0.1,8.6-0.6,9-1C56.7,31.5,56.7,29.6,56.5,29.3
		L56.5,29.3z M41,23L41,23c0.2,0.2,0.3,0.2,0.5,0.3l0.1,0c2.5,1.5,5.8,2.3,8.9,2.3c2.4,0,3.8,0.5,4.3,1.7c0.3,0.7,0.2,1.2,0.1,1.5
		l0,0.1l-0.1,0c-1.6,0.1-7.1,0.6-10.7,0.6c-0.5,0-1.1,0-1.6,0c-3.6,0-6.5-0.2-10.5-1c-0.1,0-0.2,0-0.3-0.1l-0.4-0.1l0.2-0.2
		c0.1-0.1,0.2-0.2,0.3-0.3c0.8-0.6,1.7-1.3,3.8-1.7C38.7,25.6,40.1,24.2,41,23L41,23z M31,17.1c0.3-0.1,0.6-0.1,0.8-0.1
		c1.4,0,4.5,2.4,6.7,4.2c0.4,0.3,1,0.8,1.5,1.1l0.4,0.3l-0.1,0.1c-0.4,0.5-0.8,0.9-1.8,1.6l-0.1,0.1l-0.1-0.1
		c-0.6-1.1-1.9-2.7-3.1-3.8c-1.2-1-1.7-1.5-4.3-3.1l-0.2-0.1L31,17.1z M15.7,20.3c0.2-0.8,0.4-1.3,1-1.6l0,0l0,0
		c0.1,0,0.3,0.1,0.6,0.2c1.1,0.4,3,1.1,5.8,1.1c2,0,3.2-0.7,4.6-1.4c0.3-0.2,0.6-0.3,1-0.5c0.4-0.2,0.8-0.4,1.1-0.5l0.1,0l0.1,0
		c2.7,1.6,3.6,2.4,4.9,3.5c1.3,1.1,2.1,2.3,2.7,3.3l0.2,0.3l-0.1,0.1c-0.4,0.2-1.3,0.6-2.1,0.7c-3.1,0.6-4.2,1.7-5,2.5
		c-0.1,0.1-0.1,0.1-0.2,0.2l0,0l-0.1,0c-2.2-0.4-4.4-0.5-6.4-0.7c-0.6,0-1.2-0.1-1.7-0.1l-0.1,0l0-0.1c0-0.2-0.1-0.4-0.1-0.6
		c-0.2-0.9-0.4-2.1-1.4-3.4c-1.3-1.7-3.5-2.7-4.6-2.8l-0.1,0L15.7,20.3z M15.6,21.4C15.6,21.4,15.6,21.4,15.6,21.4l0-0.2l0.1,0
		c1.4,0.2,2.8,1.1,4,2.5c0.9,1,1.1,2,1.2,2.8c0,0.2,0.1,0.5,0.2,0.7l0.1,0.2l-0.2,0c-0.8,0-1.5-0.1-2.1-0.1c-1.4,0-2.9-0.3-3-0.6
		C15.5,25.6,15.4,23.3,15.6,21.4 M25.9,30.9v0.9h-11v-3.5c0-0.2,0-0.6,0.7-0.6c0.2,0,0.5,0,0.8,0.1c0.6,0.1,1.2,0.2,2.2,0.2
		c1.5,0,4.2,0.1,7.3,0.4V30.9z M55.9,31L55.9,31l-0.1,0.1c-1,0.2-4.9,0.6-8.3,0.8c-1.3,0.1-3,0.1-4.6,0.1c-2.6,0-5.6-0.1-7.8-0.4
		c-2.5-0.3-6.5-1.1-8.3-1.4v-1.7c1.7,0.2,3.2,0.4,4.7,0.7c4,0.9,7.1,1.1,10.8,1.1c0.5,0,1.1,0,1.6,0c3.2,0,8-0.4,10.1-0.6
		c0.5,0,0.9-0.1,1-0.1c0.4,0,0.7,0,0.8,0.1c0,0,0.1,0.1,0.1,0.1l0,0.1C55.9,30.2,55.9,30.8,55.9,31"/>
	<path style="clip-path:url(#SVGID_2_);" d="M18.8,47.1l0.5,0.3c-0.2,0.3-0.4,0.6-0.6,0.8c-0.2,0.2-0.5,0.4-0.7,0.5
		s-0.6,0.2-0.9,0.2c-0.8,0-1.4-0.2-1.8-0.7c-0.4-0.5-0.6-1.1-0.6-1.7c0-0.6,0.2-1.1,0.5-1.6c0.5-0.6,1.1-0.9,1.8-0.9
		c0.8,0,1.4,0.3,1.9,0.9c0.3,0.4,0.5,1,0.5,1.6h-4.2c0,0.5,0.2,1,0.5,1.3c0.3,0.3,0.7,0.5,1.2,0.5c0.2,0,0.5,0,0.7-0.1
		c0.2-0.1,0.4-0.2,0.6-0.3S18.6,47.4,18.8,47.1 M18.8,45.8c-0.1-0.3-0.2-0.6-0.3-0.8c-0.2-0.2-0.4-0.3-0.6-0.5
		c-0.3-0.1-0.5-0.2-0.8-0.2c-0.5,0-0.8,0.1-1.2,0.4c-0.2,0.2-0.4,0.5-0.5,1H18.8z"/>
	<rect x="20.5" y="42.2" style="clip-path:url(#SVGID_2_);" width="0.6" height="6.4"/>
	<path style="clip-path:url(#SVGID_2_);" d="M24.7,44.5l-0.4,0.4c-0.3-0.3-0.6-0.5-0.9-0.5c-0.2,0-0.4,0.1-0.5,0.2
		c-0.1,0.1-0.2,0.3-0.2,0.4c0,0.2,0.1,0.3,0.2,0.4c0.1,0.1,0.4,0.3,0.7,0.5c0.4,0.2,0.7,0.5,0.9,0.7c0.2,0.2,0.2,0.5,0.2,0.7
		c0,0.4-0.1,0.7-0.4,1s-0.6,0.4-1,0.4c-0.3,0-0.5-0.1-0.8-0.2c-0.2-0.1-0.4-0.3-0.6-0.5l0.4-0.4c0.3,0.3,0.6,0.5,1,0.5
		c0.2,0,0.4-0.1,0.6-0.2c0.2-0.2,0.3-0.3,0.3-0.5c0-0.2-0.1-0.3-0.2-0.5c-0.1-0.1-0.4-0.3-0.8-0.5c-0.4-0.2-0.7-0.4-0.9-0.6
		c-0.2-0.2-0.2-0.5-0.2-0.7c0-0.4,0.1-0.6,0.4-0.9c0.2-0.2,0.5-0.3,0.9-0.3C23.8,43.9,24.2,44.1,24.7,44.5"/>
	<path style="clip-path:url(#SVGID_2_);" d="M29.6,47.1l0.5,0.3c-0.2,0.3-0.4,0.6-0.6,0.8c-0.2,0.2-0.5,0.4-0.7,0.5
		s-0.6,0.2-0.9,0.2c-0.8,0-1.4-0.2-1.8-0.7c-0.4-0.5-0.6-1.1-0.6-1.7c0-0.6,0.2-1.1,0.5-1.6c0.5-0.6,1.1-0.9,1.8-0.9
		c0.8,0,1.4,0.3,1.9,0.9c0.3,0.4,0.5,1,0.5,1.6h-4.2c0,0.5,0.2,1,0.5,1.3c0.3,0.3,0.7,0.5,1.2,0.5c0.2,0,0.5,0,0.7-0.1
		c0.2-0.1,0.4-0.2,0.6-0.3S29.5,47.4,29.6,47.1 M29.6,45.8c-0.1-0.3-0.2-0.6-0.3-0.8c-0.2-0.2-0.4-0.3-0.6-0.5
		c-0.3-0.1-0.5-0.2-0.8-0.2c-0.5,0-0.8,0.1-1.2,0.4c-0.2,0.2-0.4,0.5-0.5,1H29.6z"/>
	<path style="clip-path:url(#SVGID_2_);" d="M32.1,47.7c0.1,0,0.3,0.1,0.4,0.2c0.1,0.1,0.2,0.2,0.2,0.4c0,0.1-0.1,0.3-0.2,0.4
		c-0.1,0.1-0.2,0.2-0.4,0.2c-0.1,0-0.3-0.1-0.4-0.2c-0.1-0.1-0.2-0.2-0.2-0.4c0-0.1,0.1-0.3,0.2-0.4C31.8,47.7,31.9,47.7,32.1,47.7"
		/>
	<path style="clip-path:url(#SVGID_2_);" d="M36.2,44.5l-0.4,0.4c-0.3-0.3-0.6-0.5-0.9-0.5c-0.2,0-0.4,0.1-0.5,0.2
		c-0.1,0.1-0.2,0.3-0.2,0.4c0,0.2,0.1,0.3,0.2,0.4c0.1,0.1,0.4,0.3,0.7,0.5c0.4,0.2,0.7,0.5,0.9,0.7c0.2,0.2,0.2,0.5,0.2,0.7
		c0,0.4-0.1,0.7-0.4,1c-0.3,0.3-0.6,0.4-1,0.4c-0.3,0-0.5-0.1-0.8-0.2c-0.2-0.1-0.4-0.3-0.6-0.5l0.4-0.4c0.3,0.3,0.6,0.5,1,0.5
		c0.2,0,0.4-0.1,0.6-0.2c0.2-0.2,0.3-0.3,0.3-0.5c0-0.2-0.1-0.3-0.2-0.5c-0.1-0.1-0.4-0.3-0.8-0.5c-0.4-0.2-0.7-0.4-0.9-0.6
		c-0.2-0.2-0.2-0.5-0.2-0.7c0-0.4,0.1-0.6,0.4-0.9c0.2-0.2,0.5-0.3,0.9-0.3C35.3,43.9,35.7,44.1,36.2,44.5"/>
	<path style="clip-path:url(#SVGID_2_);" d="M37.2,42.2h0.6v2.6c0.2-0.3,0.5-0.6,0.8-0.7c0.3-0.2,0.6-0.2,0.9-0.2
		c0.3,0,0.7,0.1,0.9,0.3c0.3,0.2,0.5,0.4,0.6,0.7c0.1,0.3,0.2,0.8,0.2,1.4v2.4h-0.6v-2.2c0-0.5,0-0.9-0.1-1.1
		c-0.1-0.3-0.2-0.5-0.4-0.7s-0.5-0.2-0.8-0.2c-0.4,0-0.7,0.1-1,0.4c-0.3,0.2-0.5,0.5-0.6,0.9c-0.1,0.2-0.1,0.6-0.1,1.3v1.7h-0.6
		V42.2z"/>
	<path style="clip-path:url(#SVGID_2_);" d="M44.8,43.9c0.7,0,1.3,0.3,1.8,0.8c0.4,0.5,0.6,1,0.6,1.7c0,0.6-0.2,1.2-0.7,1.7
		c-0.5,0.5-1,0.7-1.7,0.7c-0.7,0-1.3-0.2-1.7-0.7c-0.5-0.5-0.7-1.1-0.7-1.7c0-0.6,0.2-1.2,0.6-1.7C43.5,44.1,44,43.9,44.8,43.9
		 M44.8,44.4c-0.5,0-0.9,0.2-1.3,0.6c-0.4,0.4-0.5,0.8-0.5,1.3c0,0.3,0.1,0.6,0.2,0.9c0.2,0.3,0.4,0.5,0.7,0.7s0.6,0.2,0.9,0.2
		c0.3,0,0.6-0.1,0.9-0.2s0.5-0.4,0.7-0.7c0.2-0.3,0.2-0.6,0.2-0.9c0-0.5-0.2-1-0.5-1.3C45.7,44.6,45.3,44.4,44.8,44.4"/>
	<path style="clip-path:url(#SVGID_2_);" d="M52.2,47.1l0.5,0.3c-0.2,0.3-0.4,0.6-0.6,0.8c-0.2,0.2-0.5,0.4-0.7,0.5
		s-0.6,0.2-0.9,0.2c-0.8,0-1.4-0.2-1.8-0.7c-0.4-0.5-0.6-1.1-0.6-1.7c0-0.6,0.2-1.1,0.5-1.6c0.5-0.6,1.1-0.9,1.8-0.9
		c0.8,0,1.4,0.3,1.9,0.9c0.3,0.4,0.5,1,0.5,1.6h-4.2c0,0.5,0.2,1,0.5,1.3c0.3,0.3,0.7,0.5,1.2,0.5c0.2,0,0.5,0,0.7-0.1
		c0.2-0.1,0.4-0.2,0.6-0.3C51.9,47.6,52,47.4,52.2,47.1 M52.2,45.8c-0.1-0.3-0.2-0.6-0.3-0.8c-0.2-0.2-0.4-0.3-0.6-0.5
		s-0.5-0.2-0.8-0.2c-0.5,0-0.8,0.1-1.2,0.4c-0.2,0.2-0.4,0.5-0.5,1H52.2z"/>
	<path style="clip-path:url(#SVGID_2_);" d="M56.3,44.5l-0.4,0.4c-0.3-0.3-0.6-0.5-0.9-0.5c-0.2,0-0.4,0.1-0.5,0.2
		c-0.1,0.1-0.2,0.3-0.2,0.4c0,0.2,0.1,0.3,0.2,0.4c0.1,0.1,0.4,0.3,0.7,0.5c0.4,0.2,0.7,0.5,0.9,0.7c0.2,0.2,0.2,0.5,0.2,0.7
		c0,0.4-0.1,0.7-0.4,1c-0.3,0.3-0.6,0.4-1,0.4c-0.3,0-0.5-0.1-0.8-0.2c-0.2-0.1-0.4-0.3-0.6-0.5l0.4-0.4c0.3,0.3,0.6,0.5,1,0.5
		c0.2,0,0.4-0.1,0.6-0.2c0.2-0.2,0.3-0.3,0.3-0.5c0-0.2-0.1-0.3-0.2-0.5c-0.1-0.1-0.4-0.3-0.8-0.5c-0.4-0.2-0.7-0.4-0.9-0.6
		c-0.2-0.2-0.2-0.5-0.2-0.7c0-0.4,0.1-0.6,0.4-0.9c0.2-0.2,0.5-0.3,0.9-0.3C55.5,43.9,55.9,44.1,56.3,44.5"/>
	<polygon style="clip-path:url(#SVGID_2_);" points="58.3,42.4 58.3,42.2 59.5,42.2 59.5,42.4 59.1,42.4 59.1,44.4 58.8,44.4 
		58.8,42.4 	"/>
	<polygon style="clip-path:url(#SVGID_2_);" points="59.8,44.4 60.1,42.2 60.1,42.2 61,44 61.9,42.2 61.9,42.2 62.2,44.4 62,44.4 
		61.8,42.8 61,44.4 61,44.4 60.2,42.8 60,44.4 	"/>
</g>
</svg>
