<svg xmlns="http://www.w3.org/2000/svg" width="89.8" height="69.1" viewBox="0 0 89.8 69.1">
<rect id="XMLID_62_" x="54.7" y="16.1" transform="matrix(-0.848 0.5299 -0.5299 -0.848 119.3202 14.7952)" width="5.6" height="16.8"/>
<rect id="XMLID_23_" x="42.1" y="24" transform="matrix(-0.848 0.5299 -0.5299 -0.848 100.1529 36.0833)" width="5.6" height="16.8"/>
<rect id="XMLID_21_" x="29.4" y="32" transform="matrix(-0.848 0.5299 -0.5299 -0.848 80.8571 57.5144)" width="5.6" height="16.8"/>
<rect id="XMLID_19_" x="16.7" y="39.9" transform="matrix(-0.848 0.5299 -0.5299 -0.848 61.5613 78.9454)" width="5.6" height="16.8"/>
<rect id="XMLID_18_" x="4" y="47.8" transform="matrix(-0.848 0.5299 -0.5299 -0.848 42.394 100.2335)" width="5.6" height="16.8"/>
<rect id="XMLID_17_" x="53.5" y="28.3" transform="matrix(-0.848 0.5299 -0.5299 -0.848 123.531 37.9887)" width="5.6" height="16.8"/>
<rect id="XMLID_16_" x="40.8" y="36.3" transform="matrix(-0.848 0.5299 -0.5299 -0.848 104.2351 59.4197)" width="5.6" height="16.8"/>
<rect id="XMLID_15_" x="28.2" y="44.2" transform="matrix(-0.848 0.5299 -0.5299 -0.848 85.0679 80.7079)" width="5.6" height="16.8"/>
<rect id="XMLID_13_" x="15.4" y="52.1" transform="matrix(-0.848 0.5299 -0.5299 -0.848 65.7721 102.1389)" width="5.6" height="16.8"/>
<rect id="XMLID_492_" x="80.2" y="0.2" transform="matrix(-0.848 0.5299 -0.5299 -0.848 157.9118 -28.0669)" width="5.6" height="16.8"/>
<rect id="XMLID_491_" x="67.5" y="8.2" transform="matrix(-0.848 0.5299 -0.5299 -0.848 138.616 -6.6358)" width="5.6" height="16.8"/>
<rect id="XMLID_186_" x="78.9" y="12.5" transform="matrix(-0.848 0.5299 -0.5299 -0.848 161.994 -4.7305)" width="5.6" height="16.8"/>
<rect id="XMLID_11_" x="66.2" y="20.4" transform="matrix(-0.848 0.5299 -0.5299 -0.848 142.8268 16.5577)" width="5.6" height="16.8"/>
</svg>