<svg xmlns="http://www.w3.org/2000/svg" width="120.8" height="122.6" viewBox="0 0 120.8 122.6"><path id="XMLID_191_" d="M109,102.5c-0.2-0.1-0.4-0.2-0.7-0.3l-0.8,1.9c0.4,0.2,0.9,0.4,1.4,0.6c0.1,0.1,0.3,0.1,0.4,0.1
        c0.3,0,0.6-0.1,0.8-0.4l0.9-1.2l-1.6-1.2L109,102.5z"/>
    
        <rect id="XMLID_192_" x="112.1" y="97" transform="matrix(-0.8096 -0.587 0.587 -0.8096 146.7314 244.7906)" width="2" height="3.2"/>
    <path id="XMLID_193_" d="M117.4,92.7c-0.4-0.3-0.7-0.6-1.1-0.9l-1.3,1.5c0.1,0.1,0.3,0.2,0.4,0.4l-0.3,0.4l1.6,1.2l0.9-1.2
        C117.9,93.7,117.8,93.1,117.4,92.7z"/>
    <path id="XMLID_194_" d="M97.3,35.2l-1.8-0.8c-0.4,0.9-0.8,1.9-1.2,2.8l1.9,0.7C96.5,37.1,96.9,36.1,97.3,35.2z"/>
    <path id="XMLID_195_" d="M96.8,31.7l1.8,0.9c0.4-0.9,0.9-1.7,1.4-2.6l-1.7-1C97.7,29.9,97.2,30.8,96.8,31.7z"/>
    <path id="XMLID_196_" d="M94.4,43.5c0.2-0.9,0.5-1.9,0.8-2.8l-1.9-0.6c-0.3,1-0.6,2-0.8,3L94.4,43.5z"/>
    <path id="XMLID_197_" d="M103.3,25.1l-1.6-1.2c-0.6,0.8-1.2,1.7-1.7,2.5l1.7,1.1C102.1,26.7,102.7,25.9,103.3,25.1z"/>
    <path id="XMLID_198_" d="M94.6,60.9C94.4,59.9,94.2,59,94,58l-2,0.3c0.2,1,0.4,2,0.6,3L94.6,60.9z"/>
    <path id="XMLID_199_" d="M103.5,21.5l1.6,1.3c0.6-0.8,1.3-1.6,1.9-2.3l-1.5-1.3C104.8,20,104.1,20.8,103.5,21.5z"/>
    <path id="XMLID_200_" d="M91.7,55.3l2-0.2c-0.1-1-0.1-1.9-0.1-2.9l-2,0C91.5,53.3,91.6,54.3,91.7,55.3z"/>
    <path id="XMLID_201_" d="M93.9,46.4l-2-0.3c-0.2,1-0.3,2-0.3,3.1l2,0.1C93.7,48.3,93.8,47.4,93.9,46.4z"/>
    <path id="XMLID_202_" d="M109.7,85.8c-0.7-0.7-1.3-1.4-2-2.2l-1.5,1.3c0.7,0.8,1.4,1.5,2.1,2.2L109.7,85.8z"/>
    <path id="XMLID_203_" d="M102.3,80.3c0.6,0.8,1.3,1.6,1.9,2.4l1.5-1.3c-0.6-0.7-1.2-1.5-1.8-2.3L102.3,80.3z"/>
    <path id="XMLID_204_" d="M99,71.7c-0.5-0.9-0.9-1.7-1.4-2.6L95.9,70c0.4,0.9,0.9,1.8,1.4,2.7L99,71.7z"/>
    <path id="XMLID_205_" d="M100.5,74.2l-1.7,1.1c0.5,0.8,1.1,1.7,1.7,2.5l1.6-1.1C101.6,75.9,101,75,100.5,74.2z"/>
    <path id="XMLID_206_" d="M114,89.9c-0.7-0.6-1.4-1.3-2.2-2l-1.4,1.4c0.8,0.7,1.5,1.4,2.2,2.1L114,89.9z"/>
    <path id="XMLID_207_" d="M95.5,63.7l-1.9,0.6c0.3,1,0.7,1.9,1.1,2.9l1.9-0.8C96.1,65.5,95.8,64.6,95.5,63.7z"/>
    <path id="XMLID_208_" d="M109,18.4c0.4-0.4,0.7-0.7,1-1c0.4-0.4,0.4-1,0.1-1.4l-1-1.1l-1.5,1.3l0.4,0.4c-0.1,0.1-0.3,0.3-0.4,0.4
        L109,18.4z"/>
    
        <rect id="XMLID_209_" x="104.4" y="11.4" transform="matrix(0.6515 0.7586 -0.7586 0.6515 46.2748 -75.8801)" width="2.7" height="2"/>
    <path id="XMLID_210_" d="M101.9,9.5l0.4,0.5l1.5-1.3l-1-1.1c-0.3-0.4-0.8-0.5-1.3-0.2c-0.4,0.2-0.8,0.5-1.3,0.7l0.9,1.8
        C101.5,9.8,101.7,9.6,101.9,9.5z"/>
    <path id="XMLID_211_" d="M85.2,8.9l-0.5,1.9c0.3,0.1,0.5,0.1,0.8,0.2c0.7,0.2,1.3,0.3,1.9,0.4l0.4-2c-0.6-0.1-1.2-0.2-1.8-0.4
        C85.7,9,85.4,8.9,85.2,8.9z"/>
    <path id="XMLID_212_" d="M93,11.9l-0.1-2c-0.8,0-1.7,0-2.6-0.1l-0.2,2c0.7,0.1,1.3,0.1,2,0.1C92.4,11.9,92.7,11.9,93,11.9z"/>
    <path id="XMLID_213_" d="M77.7,6.2c-0.8-0.4-1.6-0.8-2.4-1.2l-0.9,1.8C75.2,7.2,76,7.6,76.8,8L77.7,6.2z"/>
    <path id="XMLID_214_" d="M82.6,8.1c-0.8-0.3-1.7-0.6-2.5-0.9l-0.7,1.9c0.8,0.3,1.7,0.6,2.6,0.9L82.6,8.1z"/>
    <path id="XMLID_215_" d="M98.6,10.9L98,9c-0.8,0.3-1.7,0.5-2.5,0.6l0.3,2C96.8,11.4,97.7,11.2,98.6,10.9z"/>
    <path id="XMLID_216_" d="M71.2,4.9c0.2,0.2,0.5,0.3,0.8,0.5l1-1.7c-0.4-0.3-0.8-0.5-1.2-0.8c-0.3-0.2-0.7-0.2-1.1,0
        c-0.4,0.2-0.8,0.5-1.2,0.7l1,1.8C70.6,5.2,70.9,5.1,71.2,4.9z"/>
    <path id="XMLID_217_" d="M54,7.7c-1.1,0.1-2.2,0.1-3.2,0.1v2c1.1,0,2.2,0,3.4-0.1L54,7.7z"/>
    <path id="XMLID_218_" d="M44,9.3c1.1,0.2,2.2,0.3,3.4,0.4l0.2-2c-1.1-0.1-2.2-0.2-3.2-0.4L44,9.3z"/>
    <path id="XMLID_219_" d="M66.5,5c-1,0.4-2,0.7-3,1.1l0.6,1.9c1.1-0.3,2.2-0.7,3.2-1.1L66.5,5z"/>
    <path id="XMLID_220_" d="M60.4,6.8c-1,0.2-2.1,0.4-3.2,0.6l0.3,2c1.1-0.2,2.3-0.4,3.3-0.6L60.4,6.8z"/>
    <path id="XMLID_221_" d="M38.7,6.5c-0.3,0.3-0.6,0.7-1,1.1l1.5,1.4c0.2-0.2,0.4-0.4,0.6-0.6c0.3,0.1,0.5,0.2,0.8,0.3l0.5-1.9
        c-0.5-0.1-0.9-0.3-1.4-0.4C39.4,6,39,6.1,38.7,6.5z"/>
    <path id="XMLID_222_" d="M27.7,17.1l-0.9-1.8c-0.8,0.4-1.6,0.7-2.5,1l0.6,1.9C25.9,17.9,26.8,17.5,27.7,17.1z"/>
    <path id="XMLID_223_" d="M22.2,19l-0.4-2c-0.9,0.2-1.8,0.3-2.6,0.4l0.2,2C20.3,19.4,21.3,19.2,22.2,19z"/>
    <path id="XMLID_224_" d="M16.5,17.5c-0.9,0-1.8-0.1-2.6-0.2l-0.3,2c1,0.1,1.9,0.2,2.9,0.3L16.5,17.5z"/>
    <path id="XMLID_225_" d="M35.9,9.4c-0.7,0.6-1.4,1.2-2.1,1.7l1.2,1.6c0.8-0.6,1.5-1.2,2.2-1.8L35.9,9.4z"/>
    <path id="XMLID_226_" d="M32.6,14.4l-1.1-1.7c-0.7,0.5-1.5,1-2.3,1.4l1,1.7C31,15.4,31.9,14.9,32.6,14.4z"/>
    <path id="XMLID_227_" d="M10,18.5c0.2,0.1,0.5,0.1,0.7,0.2l0.5-1.9c-0.5-0.1-0.9-0.3-1.4-0.4c-0.5-0.2-1,0-1.2,0.5l-0.7,1.3l1.7,1
        L10,18.5z"/>
    
        <rect id="XMLID_228_" x="5.7" y="20.8" transform="matrix(0.8711 0.4912 -0.4912 0.8711 11.7852 -0.4404)" width="2" height="2.8"/>
    <path id="XMLID_229_" d="M5.5,26.4l-1.7-1L3,26.7c-0.2,0.4-0.1,1,0.3,1.3c0.4,0.3,0.8,0.6,1.2,0.9l1.3-1.6
        c-0.2-0.1-0.3-0.3-0.5-0.4L5.5,26.4z"/>
    <path id="XMLID_230_" d="M21.8,53.3l1.9-0.6c-0.3-1-0.7-2-1-3l-1.9,0.7C21.2,51.4,21.5,52.4,21.8,53.3z"/>
    <path id="XMLID_231_" d="M20,44l-1.8,1c0.5,0.9,1,1.8,1.4,2.7l1.8-0.8C21,45.9,20.5,45,20,44z"/>
    <path id="XMLID_232_" d="M24.5,55.8l-1.9,0.4c0.2,1,0.4,2,0.6,3l2-0.3C25,57.9,24.8,56.9,24.5,55.8z"/>
    <path id="XMLID_233_" d="M20.3,89.7c0.4-0.9,0.8-1.9,1.2-2.9l-1.9-0.7c-0.4,1-0.7,1.9-1.1,2.8L20.3,89.7z"/>
    <path id="XMLID_234_" d="M25.5,62.1l-2,0.2c0.1,1,0.1,2,0.1,3l2,0C25.6,64.2,25.6,63.1,25.5,62.1z"/>
    <path id="XMLID_235_" d="M23.3,71.3l2,0.2c0.1-1.1,0.2-2.1,0.3-3.1l-2-0.1C23.5,69.3,23.4,70.3,23.3,71.3z"/>
    <path id="XMLID_236_" d="M16.7,42.4l1.7-1.1c-0.6-0.9-1.2-1.8-1.8-2.6L15,39.9C15.6,40.7,16.1,41.5,16.7,42.4z"/>
    <path id="XMLID_237_" d="M13,99.9l1.7,1c0.5-0.9,1-1.8,1.5-2.7l-1.8-1C14,98.2,13.5,99,13,99.9z"/>
    <path id="XMLID_238_" d="M20.6,83.2l1.9,0.6c0.3-1,0.6-2,0.9-3l-1.9-0.5C21.2,81.2,20.9,82.2,20.6,83.2z"/>
    <path id="XMLID_239_" d="M13.1,37.5l1.5-1.3c-0.7-0.8-1.3-1.6-2.1-2.4l-1.5,1.3C11.8,35.9,12.5,36.7,13.1,37.5z"/>
    <path id="XMLID_240_" d="M22.8,74.3c-0.2,1-0.4,2-0.6,3l2,0.4c0.2-1,0.4-2.1,0.6-3.1L22.8,74.3z"/>
    <path id="XMLID_241_" d="M15.9,94.5l1.8,0.9c0.5-0.9,0.9-1.8,1.4-2.8l-1.8-0.8C16.8,92.7,16.4,93.6,15.9,94.5z"/>
    <path id="XMLID_242_" d="M8.1,29.4l-1.3,1.5C7.5,31.5,8.3,32.3,9,33l1.4-1.4C9.7,30.8,8.9,30.1,8.1,29.4z"/>
    <path id="XMLID_243_" d="M13.1,103.6l-1.7-1.1c-0.3,0.4-0.5,0.9-0.8,1.2c-0.3,0.4-0.2,1,0.2,1.3l1.1,1l1.4-1.5l-0.5-0.4
        C12.8,104,12.9,103.8,13.1,103.6z"/>
    
        <rect id="XMLID_244_" x="14.5" y="107.7" transform="matrix(-0.7333 -0.6799 0.6799 -0.7333 -45.8784 199.4523)" width="3.3" height="2"/>
    <path id="XMLID_245_" d="M21,111.8l-0.5-0.5l-1.4,1.5l1.1,1c0.2,0.2,0.4,0.3,0.7,0.3c0.2,0,0.4-0.1,0.6-0.2
        c0.4-0.3,0.8-0.6,1.2-0.9l-1.2-1.6C21.4,111.6,21.2,111.7,21,111.8z"/>
    <path id="XMLID_246_" d="M36.4,105.9l0,2l0.4,0c0.9,0,1.7,0.1,2.5,0.2l0.3-2c-0.9-0.2-1.9-0.2-2.8-0.2L36.4,105.9z"/>
    <path id="XMLID_247_" d="M86,103.2c-0.6,0.4-1.2,0.9-1.9,1.4l1.2,1.6c0.7-0.5,1.3-1,1.9-1.4c0.2-0.1,0.4-0.3,0.6-0.4l-1.1-1.7
        C86.4,102.9,86.2,103,86,103.2z"/>
    <path id="XMLID_248_" d="M79.2,108.4l1.2,1.6c0.8-0.7,1.6-1.3,2.4-1.9l-1.2-1.6C80.8,107.1,80,107.7,79.2,108.4z"/>
    
        <rect id="XMLID_249_" x="70.4" y="114.5" transform="matrix(-0.637 -0.7709 0.7709 -0.637 27.4366 244.9344)" width="2" height="3.1"/>
    <path id="XMLID_250_" d="M74.3,112.3l1.3,1.6c0.8-0.6,1.6-1.3,2.4-1.9l-1.3-1.6C76,111,75.1,111.6,74.3,112.3z"/>
    <path id="XMLID_251_" d="M101.9,102.3c0.9,0.2,1.9,0.4,2.9,0.8l0.6-1.9c-1-0.3-2.1-0.6-3.1-0.8L101.9,102.3z"/>
    <path id="XMLID_252_" d="M95.9,99.8l0.1,2c1,0,1.9,0,3,0.1l0.2-2C98,99.7,96.9,99.7,95.9,99.8z"/>
    <path id="XMLID_253_" d="M89.5,101.2l0.8,1.8c0.9-0.4,1.8-0.7,2.8-0.9l-0.4-2C91.6,100.4,90.5,100.8,89.5,101.2z"/>
    <path id="XMLID_254_" d="M42.9,106.9l-0.7,1.9c0.3,0.1,0.7,0.3,1,0.4c0.6,0.3,1.1,0.5,1.7,0.8l0.9-1.8c-0.6-0.3-1.2-0.6-1.8-0.8
        C43.6,107.2,43.2,107.1,42.9,106.9z"/>
    <path id="XMLID_255_" d="M47.6,111.4c0.9,0.4,1.8,0.9,2.8,1.4l0.9-1.8c-0.9-0.5-1.9-1-2.8-1.4L47.6,111.4z"/>
    <path id="XMLID_256_" d="M24.3,109.7l1,1.7c0.9-0.5,1.8-1,2.7-1.4l-0.8-1.8C26.1,108.7,25.2,109.2,24.3,109.7z"/>
    <path id="XMLID_257_" d="M64.8,118l-0.4,2c0.4,0.1,0.9,0.1,1.3,0.1c0.8,0,1.6-0.1,2.3-0.4l-0.7-1.9C66.5,118.1,65.6,118.2,64.8,118
        z"/>
    <path id="XMLID_258_" d="M30,107l0.6,1.9c1-0.3,1.9-0.6,2.9-0.8l-0.4-2C32.1,106.4,31.1,106.7,30,107z"/>
    <path id="XMLID_259_" d="M53.1,114.2c0.9,0.5,1.8,1,2.7,1.4l0.9-1.8c-0.9-0.5-1.8-1-2.7-1.4L53.1,114.2z"/>
    <path id="XMLID_260_" d="M58.6,117.1c0.9,0.5,1.9,1,2.7,1.5l0.9-1.8c-0.9-0.5-1.8-1-2.7-1.5L58.6,117.1z"/></svg>