<svg xmlns="http://www.w3.org/2000/svg" width="121.4" height="121.4" viewBox="0 0 121.4 121.4">
   <path fill="red" d="M107.2,8.4l1.5-1.9c0.8-1,0.6-2.4-0.4-3.2l-3.7-2.9c-1-0.8-2.4-0.6-3.2,0.4l-1.5,1.9
            c-0.8,1-2.2,1.2-3.2,0.4l-1.9-1.5c-1-0.8-2.4-0.6-3.2,0.4L90.1,4c-0.8,1-2.2,1.2-3.2,0.4L85,2.9c-1-0.8-2.4-0.6-3.2,0.4l-1.5,1.9
            c-0.8,1-2.2,1.2-3.2,0.4l-1.9-1.5c-1-0.8-2.4-0.6-3.2,0.4l-1.5,1.9c-0.8,1-2.2,1.2-3.2,0.4l-1.9-1.5c-1-0.8-2.4-0.6-3.2,0.4
            l-1.5,1.9c-0.8,1-2.2,1.2-3.2,0.4l-1.9-1.5c-1-0.8-2.4-0.6-3.2,0.4l-1.5,1.9c-0.8,1-2.2,1.2-3.2,0.4l-1.9-1.5
            c-1-0.8-2.4-0.6-3.2,0.4l-1.5,1.9c-0.8,1-2.2,1.2-3.2,0.4L36,9.1c-1-0.8-2.4-0.6-3.2,0.4l-1.5,1.9c-0.8,1-2.2,1.2-3.2,0.4
            l-1.9-1.5c-1-0.8-2.4-0.6-3.2,0.4l-1.5,1.9c-0.8,1-2.2,1.2-3.2,0.4l-1.9-1.5c-1-0.8-2.4-0.6-3.2,0.4l-1.5,1.9
            c-0.8,1-2.2,1.2-3.2,0.4l-1.9-1.5c-1-0.8-2.4-0.6-3.2,0.4l-2.9,3.7c-0.8,1-0.6,2.4,0.4,3.2l1.9,1.5c1,0.8,1.2,2.2,0.4,3.2
            l-1.5,1.9c-0.8,1-0.6,2.4,0.4,3.2L4,31.3c1,0.8,1.2,2.2,0.4,3.2l-1.5,1.9c-0.8,1-0.6,2.4,0.4,3.2l1.9,1.5c1,0.8,1.2,2.2,0.4,3.2
            l-1.5,1.9c-0.8,1-0.6,2.4,0.4,3.2l1.9,1.5c1,0.8,1.2,2.2,0.4,3.2L5.4,56c-0.8,1-0.6,2.4,0.4,3.2l1.9,1.5c1,0.8,1.2,2.2,0.4,3.2
            l-1.5,1.9c-0.8,1-0.6,2.4,0.4,3.2l1.9,1.5c1,0.8,1.2,2.2,0.4,3.2l-1.5,1.9c-0.8,1-0.6,2.4,0.4,3.2l1.9,1.5c1,0.8,1.2,2.2,0.4,3.2
            l-1.5,1.9c-0.8,1-0.6,2.4,0.4,3.2l1.9,1.5c1,0.8,1.2,2.2,0.4,3.2l-1.5,1.9c-0.8,1-0.6,2.4,0.4,3.2l1.9,1.5c1,0.8,1.2,2.2,0.4,3.2
            l-1.5,1.9c-0.8,1-0.6,2.4,0.4,3.2l1.9,1.5c1,0.8,1.2,2.2,0.4,3.2l-1.5,1.9c-0.8,1-0.6,2.4,0.4,3.2l3.7,2.9c1,0.8,2.4,0.6,3.2-0.4
            l1.5-1.9c0.8-1,2.2-1.2,3.2-0.4l1.9,1.5c1,0.8,2.4,0.6,3.2-0.4l1.5-1.9c0.8-1,2.2-1.2,3.2-0.4l1.9,1.5c1,0.8,2.4,0.6,3.2-0.4
            l1.5-1.9c0.8-1,2.2-1.2,3.2-0.4l1.9,1.5c1,0.8,2.4,0.6,3.2-0.4l1.5-1.9c0.8-1,2.2-1.2,3.2-0.4L56,116c1,0.8,2.4,0.6,3.2-0.4
            l1.5-1.9c0.8-1,2.2-1.2,3.2-0.4l1.9,1.5c1,0.8,2.4,0.6,3.2-0.4l1.5-1.9c0.8-1,2.2-1.2,3.2-0.4l1.9,1.5c1,0.8,2.4,0.6,3.2-0.4
            l1.5-1.9c0.8-1,2.2-1.2,3.2-0.4l1.9,1.5c1,0.8,2.4,0.6,3.2-0.4l1.5-1.9c0.8-1,2.2-1.2,3.2-0.4l1.9,1.5c1,0.8,2.4,0.6,3.2-0.4
            l1.5-1.9c0.8-1,2.2-1.2,3.2-0.4l1.9,1.5c1,0.8,2.4,0.6,3.2-0.4l1.5-1.9c0.8-1,2.2-1.2,3.2-0.4l1.9,1.5c1,0.8,2.4,0.6,3.2-0.4
            l2.9-3.7c0.8-1,0.6-2.4-0.4-3.2l-1.9-1.5c-1-0.8-1.2-2.2-0.4-3.2l1.5-1.9c0.8-1,0.6-2.4-0.4-3.2l-1.9-1.5c-1-0.8-1.2-2.2-0.4-3.2
            l1.5-1.9c0.8-1,0.6-2.4-0.4-3.2l-1.9-1.5c-1-0.8-1.2-2.2-0.4-3.2l1.5-1.9c0.8-1,0.6-2.4-0.4-3.2l-1.9-1.5c-1-0.8-1.2-2.2-0.4-3.2
            l1.5-1.9c0.8-1,0.6-2.4-0.4-3.2l-1.9-1.5c-1-0.8-1.2-2.2-0.4-3.2l1.5-1.9c0.8-1,0.6-2.4-0.4-3.2l-1.9-1.5c-1-0.8-1.2-2.2-0.4-3.2
            l1.5-1.9c0.8-1,0.6-2.4-0.4-3.2l-1.9-1.5c-1-0.8-1.2-2.2-0.4-3.2l1.5-1.9c0.8-1,0.6-2.4-0.4-3.2l-1.9-1.5c-1-0.8-1.2-2.2-0.4-3.2
            l1.5-1.9c0.8-1,0.6-2.4-0.4-3.2l-1.9-1.5c-1-0.8-1.2-2.2-0.4-3.2l1.5-1.9c0.8-1,0.6-2.4-0.4-3.2l-1.9-1.5
            C106.6,10.9,106.4,9.5,107.2,8.4z"/>
</svg>