<svg xmlns="http://www.w3.org/2000/svg" width="121.4" height="74" viewBox="0 0 121.4 74"><path id="XMLID_21_" d="M80.8,46.8c0-0.5-0.1-0.9-0.1-1.3c0-6.2,0-12.5,0-19.2c1,0,1.2,0.4,1.7,0.9c3.7,3.7,7.6,7.8,11.3,11.5
        c0.3,0.4,0.7,0.7,1.3,1.3c0-4.6,0-8.8,0-13.2c1.2,0,2.3,0,3.5,0c0,0.5,0.1,1.1,0.1,1.6c0,5.6,0,11.2,0,16.9c0,0.6,0,1.7,0,1.7
        c-0.7,0-1.6-0.4-2-0.8c-3.7-3.7-7.4-7.5-11-11.3c-0.4-0.4-0.8-0.8-1.4-1.5c0,4.7,0,9.1,0,13.5C83,46.8,82,46.8,80.8,46.8z"/>
    <path id="XMLID_19_" d="M16.8,41.4c0.7,0.8,1.3,1.4,1.9,2.1c-2.5,3.4-7.2,4.8-11.4,3.5c-4.3-1.3-7.1-5-7.2-9.3
        c-0.1-5.3,2.3-9.2,6.8-10.9c4.1-1.5,8.6-0.3,11.3,3.1c-0.7,0.6-1.4,1.3-2.2,2c-1.9-1.8-4.1-3.1-6.8-2.4c-1.4,0.4-3,1.2-4,2.3
        c-2.7,2.9-2.4,7.9,0.3,10.6C8.4,45.2,12.4,44.9,16.8,41.4z"/>
    <path id="XMLID_18_" d="M121.4,43.8c0,1.1,0,2,0,3c-3.7,0-7.3,0-11,0c0-6.6,0-13.3,0-20c3.4,0,6.7,0,10.2,0c0,0.9,0,1.8,0,2.9
        c-2.3,0-4.5,0-6.9,0c0,1.6,0,3,0,4.6c1.9,0,3.7,0,5.7,0c0,1.1,0,2,0,3.1c-1.9,0-3.7,0-5.7,0c0,2.2,0,4.2,0,6.5
        C116.1,43.8,118.7,43.8,121.4,43.8z"/>
    <path id="XMLID_17_" d="M30.3,34.3c1.9,0,3.7,0,5.6,0c0,1,0,2,0,3.1c-1.8,0-3.6,0-5.6,0c0,2.2,0,4.3,0,6.5c2.6,0,5.1,0,7.8,0
        c0,1,0,1.9,0,3c-3.6,0-7.3,0-11,0c0-6.6,0-13.3,0-20c3.3,0,6.7,0,10.1,0c0,0.9,0,1.8,0,2.9c-2.3,0-4.5,0-6.9,0
        C30.3,31.3,30.3,32.7,30.3,34.3z"/>
    <path id="XMLID_16_" d="M47.8,46.7c0-6.6,0-13.2,0-19.9c1,0,1.9,0,3,0c0,5.6,0,11.2,0,16.9c2.4,0,4.6,0,6.9,0c0,1.1,0,2,0,3
        C54.6,46.7,51.3,46.7,47.8,46.7z"/>
    <path id="XMLID_15_" d="M68.9,26.8c0,6.7,0,13.4,0,20.1c-1,0-1.9,0-2.9,0c0-6.7,0-13.3,0-20.1C67,26.8,67.9,26.8,68.9,26.8z"/>
    <path id="XMLID_13_" d="M30.4,24.4c-0.4-0.6-0.8-1.1-1.3-1.7c1.6-1.2,3.1-2.3,4.8-3.5c0.5,0.7,1,1.3,1.6,2.2
        C33.8,22.4,32.2,23.4,30.4,24.4z"/>
</svg>